<?xml version="1.0" encoding="utf-8"?>
<!-- Svg Vector Icons : http://www.onlinewebfonts.com/icon -->
<!DOCTYPE svg PUBLIC "-//W3C//DTD SVG 1.1//EN" "http://www.w3.org/Graphics/SVG/1.1/DTD/svg11.dtd">
<svg version="1.1" xmlns="http://www.w3.org/2000/svg" xmlns:xlink="http://www.w3.org/1999/xlink" x="0px" y="0px" viewBox="0 0 1000 1000" enable-background="new 0 0 1000 1000" xml:space="preserve">
<metadata> Svg Vector Icons : http://www.onlinewebfonts.com/icon </metadata>
<g><g transform="translate(0.000000,512.000000) scale(0.100000,-0.100000)"><path d="M4644.3,5014.2c-42.2-3.8-170.5-17.2-285.5-26.8c-1048.1-101.5-2075.1-509.7-2837.6-1124.7C153.1,2759-268.4,1128.5,436.7-329.6c521.2-1076.8,1594.1-1923.7,2946.9-2326.1c490.5-145.6,973.3-214.6,1576.9-224.2l450.3-7.7l90.1-155.2c49.8-86.2,139.9-226.1,201.2-312.3c153.3-214.6,624.6-682.1,848.8-839.2c216.5-153.3,597.8-354.5,823.9-433c212.7-72.8,651.4-172.4,651.4-147.5c0,3.8-47.9,82.4-107.3,172.4c-348.7,534.6-500.1,1071.1-429.2,1523.2c82.4,513.5,394.7,959.9,1000.2,1425.5c850.7,653.4,1299.1,1450.4,1396.8,2483.2c118.8,1249.3-553.7,2494.7-1783.8,3305.1c-684,452.2-1529,747.3-2442.9,852.6C5477.8,5008.5,4774.6,5027.6,4644.3,5014.2z M5726.8,4326.4c1232-168.6,2318.4-751.1,2943-1580.7c461.8-611.2,643.8-1264.6,561.4-2006.1c-90-820.1-498.2-1446.6-1444.7-2222.6c-410-335.3-578.6-536.5-747.2-891c-120.7-254.8-164.8-425.4-176.3-687.8c-13.4-260.6,19.2-440.7,109.2-617c30.7-61.3,44.1-103.5,28.7-95.8c-13.4,9.6-116.9,95.8-229.9,195.4c-429.2,381.3-858.4,908.2-940.8,1155.4l-30.6,95.8l-109.2-11.5c-164.8-17.2-1113.2,21.1-1362.3,55.6c-885.2,124.5-1712.9,480.9-2351,1011.7C1159-588.3,703,335.3,750.9,1222.4c88.1,1622.9,1661.2,2931.5,3768.8,3132.7C4772.7,4378.1,5460.5,4362.8,5726.8,4326.4z"/></g></g>
</svg>